# xmcd
#
# Track frame offsets:
#	150
#	14929
#	29145
#	44300
#	57767
#	70595
#	84024
#	96553
#	108145
#	123786
#	137739
#	151506
#	163323
#	176303
#	190408
#	203987
#	216815
#	230394
#	243785
#	256089
#	268881
#	281147
#	292739
#	304968
#	315809
#
# Disc length: 4372 seconds
#
# Revision: 1
# Processed by: cddbd v1.5.2PL0 Copyright (c) Steve Scherf et al.
# Submitted via: EasyCDDAExtractor 15.3.0.1
#
DISCID=5a111219
DTITLE=Memphis Minnie - Crazy Crying Blues
DYEAR=2002
DGENRE=Blues
TTITLE0=Bumble Bee
TTITLE1=Can I Do It For You Pt 1
TTITLE2=Memphis Minnie-Jitis Blues
TTITLE3=New Dirty Dozen
TTITLE4=Frankie Jean (That Trottin´ Fool)
TTITLE5=I Called You This Morning
TTITLE6=What´s The Matter With The Mill
TTITLE7=North Memphis Blues
TTITLE8=Crazy Cryin Blues
TTITLE9=Tricks Ain´t Walking No More
TTITLE10=Pickin´ The Blues
TTITLE11=Soo Cow Soo
TTITLE12=After Awhile Blues
TTITLE13=Joliet Bound
TTITLE14=Where Is My Good Man
TTITLE15=Drunken Barrel House Blues
TTITLE16=You Got To Move (You Ain´t Got To Move Pt 1
TTITLE17=Let Me Ride
TTITLE18=Nothing In Rambling
TTITLE19=Finger Print Blues
TTITLE20=Ma Rainey
TTITLE21=In My Girlish Days
TTITLE22=Me And My Chauffer Blues
TTITLE23=Pigment On The Line
TTITLE24=Can´t Afford To Lose My Man
EXTD=Memphis Minnie was born Lizzie Douglas in\n3 June 1897, Algiers, Louisian
EXTD=a,\ndied 6 August 1973, Memphis.
EXTT0=McCoy/McCoy
EXTT1=McCoy
EXTT2=McCoy
EXTT3=Perryman
EXTT4=McCoy
EXTT5=McCoy
EXTT6=McCoy
EXTT7=McCoy
EXTT8=McCoy
EXTT9=Bogan
EXTT10=McCoy
EXTT11=McCoy
EXTT12=McCoy
EXTT13=McCoy
EXTT14=McCoy
EXTT15=McCoy
EXTT16=McCoy
EXTT17=Dennis/McCoy
EXTT18=McCoy
EXTT19=McCoy
EXTT20=McCoy
EXTT21=Lawlar
EXTT22=Lawlar
EXTT23=Lawlar
EXTT24=Lawlar
PLAYORDER=
